HIERARCHY
ROOT joint_Root
{
	OFFSET 0.0 0.0 0.0
	CHANNELS 6 Xposition Yposition Zposition Zrotation Xrotation Yrotation 
	JOINT Hips
	{
		OFFSET -0.726466 93.3139 -2.00062
		CHANNELS 6 Xposition Yposition Zposition Zrotation Xrotation Yrotation 
		JOINT Spine
		{
			OFFSET 15.7357 0.0 0.0
			CHANNELS 6 Xposition Yposition Zposition Zrotation Xrotation Yrotation 
			JOINT Chest
			{
				OFFSET 8.98455 -0.406207 0.0
				CHANNELS 6 Xposition Yposition Zposition Zrotation Xrotation Yrotation 
				JOINT Neck
				{
					OFFSET 16.3773 0.0 0.0
					CHANNELS 6 Xposition Yposition Zposition Zrotation Xrotation Yrotation 
					JOINT Head
					{
						OFFSET 6.45672 0.0 0.0
						CHANNELS 6 Xposition Yposition Zposition Zrotation Xrotation Yrotation 
						End Site
						{
							OFFSET 0.0 0.0 0.0
						}
					}
				}
				JOINT Shoulder_L
				{
					OFFSET 12.9942 -0.242716 4.98039
					CHANNELS 6 Xposition Yposition Zposition Zrotation Xrotation Yrotation 
					JOINT UpperArm_L
					{
						OFFSET 5.34809 0.0 0.0
						CHANNELS 6 Xposition Yposition Zposition Zrotation Xrotation Yrotation 
						JOINT LowerArm_L
						{
							OFFSET 24.3286 1.87007e-05 0.0
							CHANNELS 6 Xposition Yposition Zposition Zrotation Xrotation Yrotation 
							JOINT Hand_L
							{
								OFFSET 22.2916 0.0 0.0
								CHANNELS 6 Xposition Yposition Zposition Zrotation Xrotation Yrotation 
								End Site
								{
									OFFSET 0.0 0.0 0.0
								}
							}
						}
					}
				}
				JOINT Shoulder_R
				{
					OFFSET 12.9945 -0.242716 -4.98039
					CHANNELS 6 Xposition Yposition Zposition Zrotation Xrotation Yrotation 
					JOINT UpperArm_R
					{
						OFFSET -5.34813 0.0 0.0
						CHANNELS 6 Xposition Yposition Zposition Zrotation Xrotation Yrotation 
						JOINT LowerArm_R
						{
							OFFSET -24.3289 0.000322201 0.0
							CHANNELS 6 Xposition Yposition Zposition Zrotation Xrotation Yrotation 
							JOINT Hand_R
							{
								OFFSET -22.2915 -0.000108084 0.0
								CHANNELS 6 Xposition Yposition Zposition Zrotation Xrotation Yrotation 
								End Site
								{
									OFFSET 0.0 0.0 0.0
								}
							}
						}
					}
				}
			}
		}
		JOINT UpperLeg_L
		{
			OFFSET -2.19248 -6.46944 0.0
			CHANNELS 6 Xposition Yposition Zposition Zrotation Xrotation Yrotation 
			JOINT LowerLeg_L
			{
				OFFSET 39.0811 0.0 -1.23785e-05
				CHANNELS 6 Xposition Yposition Zposition Zrotation Xrotation Yrotation 
				JOINT Foot_L
				{
					OFFSET 40.9854 0.0 -1.26872e-05
					CHANNELS 6 Xposition Yposition Zposition Zrotation Xrotation Yrotation 
					JOINT Toes_L
					{
						OFFSET 11.7543 0.0 0.0
						CHANNELS 6 Xposition Yposition Zposition Zrotation Xrotation Yrotation 
						End Site
						{
							OFFSET 0.0 0.0 0.0
						}
					}
				}
			}
		}
		JOINT UpperLeg_R
		{
			OFFSET -2.19251 6.46944 0.0
			CHANNELS 6 Xposition Yposition Zposition Zrotation Xrotation Yrotation 
			JOINT LowerLeg_R
			{
				OFFSET -39.0811 -0.00228153 -0.0401928
				CHANNELS 6 Xposition Yposition Zposition Zrotation Xrotation Yrotation 
				JOINT Foot_R
				{
					OFFSET -40.9854 0.0 0.0
					CHANNELS 6 Xposition Yposition Zposition Zrotation Xrotation Yrotation 
					JOINT Toes_R
					{
						OFFSET -11.7543 0.0 0.0
						CHANNELS 6 Xposition Yposition Zposition Zrotation Xrotation Yrotation 
						End Site
						{
							OFFSET 0.0 0.0 0.0
						}
					}
				}
			}
		}
	}
}
MOTION
Frames:	5
Frame Time:	0.0333333
0.000000 0.000000 0.000000 0.000000 0.000000 -0.000000 142.843000 87.430300 -146.488000 85.994900 3.234780 0.540739 15.735700 0.000005 -0.000001 67.405000 80.270300 -65.221300 8.984550 -0.406207 -0.000000 10.408700 -7.376650 5.042370 16.377300 -0.000001 -0.000001 7.535440 -1.950040 -1.095540 6.456720 -0.000001 -0.000000 -0.898989 2.469330 -0.142120 12.994200 -0.242716 4.980390 -88.353400 -4.606380 -70.305100 5.348090 -0.000007 -0.000001 -32.408100 32.895100 -39.124100 24.328600 0.000019 0.000005 4.905520 3.148770 -57.381200 22.291600 -0.000001 0.000005 7.239760 5.560640 -9.218560 12.994500 -0.242716 -4.980390 89.074900 1.885440 -63.859400 -5.348130 -0.000001 -0.000004 -60.284100 31.620700 0.510748 -24.328900 0.000322 -0.000009 1.933540 2.672050 -35.925700 -22.291500 -0.000108 -0.000004 2.010920 5.495350 -6.347440 -2.192480 -6.469440 -0.000000 -169.855000 -8.139280 9.475020 39.081100 -0.000007 -0.000012 -0.055930 0.115503 25.837600 40.985400 -0.000006 -0.000013 -1.405440 0.634940 -80.126400 11.754300 -0.000000 0.000003 -2.140770 -2.629860 -18.404200 -2.192510 6.469440 -0.000001 -171.304000 22.813200 144.739000 -39.081100 -0.002282 -0.040193 0.026203 -0.040242 29.642500 -40.985400 0.000008 0.000006 6.307330 -3.164040 -49.133500 -11.754300 -0.000006 -0.000006 -0.024074 -0.188893 -24.299100
0.000000 0.000000 0.000000 0.000000 0.000000 -0.000000 141.610000 86.924400 -142.566000 84.936700 4.936440 0.629301 15.735700 0.000005 -0.000001 67.130300 80.303500 -64.263100 8.984550 -0.406207 -0.000000 10.360200 -7.422560 6.411080 16.377300 -0.000001 -0.000001 7.248360 -2.407190 -1.111630 6.456720 -0.000001 -0.000000 -0.913514 1.782880 -0.258186 12.994200 -0.242716 4.980390 -88.491600 -4.248860 -70.433900 5.348090 -0.000007 -0.000001 -35.102300 34.708800 -36.832000 24.328600 0.000019 0.000005 6.492130 4.219210 -57.117100 22.291600 -0.000001 0.000005 6.840210 5.559680 -9.170730 12.994500 -0.242716 -4.980390 89.078900 1.889070 -63.999500 -5.348130 -0.000001 -0.000004 -61.021300 30.897000 1.066360 -24.328900 0.000322 -0.000009 1.851170 2.685950 -34.610800 -22.291500 -0.000108 -0.000004 1.990780 5.500310 -6.545660 -2.192480 -6.469440 -0.000000 -167.286000 -6.119170 10.498200 39.081100 -0.000007 -0.000012 -0.057031 0.108318 27.767500 40.985400 -0.000006 -0.000013 -2.844330 1.528600 -78.952700 11.754300 -0.000000 0.000003 -0.007644 -0.085114 -20.042300 -2.192510 6.469440 -0.000001 -171.783000 19.849700 144.030000 -39.081100 -0.002282 -0.040193 0.052067 -0.066618 36.212100 -40.985400 0.000008 0.000006 6.568730 -7.471430 -49.837400 -11.754300 -0.000006 -0.000006 -0.015962 -0.143795 -22.441500
0.000000 0.000000 0.000000 0.000000 0.000000 -0.000000 140.383000 86.670200 -138.405000 84.195900 5.940210 1.138810 15.735700 0.000005 -0.000001 67.523700 80.278000 -64.200600 8.984550 -0.406207 -0.000000 10.486100 -7.304890 7.320800 16.377300 -0.000001 -0.000001 7.058620 -2.613360 -1.044740 6.456720 -0.000001 -0.000000 -0.842124 1.197700 -0.459002 12.994200 -0.242716 4.980390 -88.545800 -4.072370 -70.330100 5.348090 -0.000007 -0.000001 -39.415700 36.323600 -33.043600 24.328600 0.000019 0.000005 7.861490 5.276790 -56.334800 22.291600 -0.000001 0.000005 6.401860 5.557730 -9.076300 12.994500 -0.242716 -4.980390 89.076600 1.919540 -64.305000 -5.348130 -0.000001 -0.000004 -61.341800 31.163000 0.204548 -24.328900 0.000322 -0.000009 1.988150 3.134480 -32.426500 -22.291500 -0.000108 -0.000004 2.171730 5.498740 -6.483120 -2.192480 -6.469440 -0.000000 -165.571000 -3.776920 10.796500 39.081100 -0.000007 -0.000012 -0.042692 0.069585 31.530500 40.985400 -0.000006 -0.000013 -4.090090 0.875745 -75.542800 11.754300 -0.000000 0.000003 -0.033180 -0.231696 -26.077100 -2.192510 6.469440 -0.000001 -171.364000 19.195900 144.722000 -39.081100 -0.002282 -0.040193 0.081037 -0.087873 41.507200 -40.985400 0.000008 0.000006 7.371050 -9.244380 -54.107700 -11.754300 -0.000006 -0.000006 -0.010285 -0.105759 -20.882400
0.000000 0.000000 0.000000 0.000000 0.000000 -0.000000 139.192000 86.796300 -134.296000 84.407800 6.678950 1.859760 15.735700 0.000005 -0.000001 68.146200 80.323400 -64.832500 8.984550 -0.406207 -0.000000 10.470100 -7.077700 7.279490 16.377300 -0.000001 -0.000001 7.267030 -3.010760 -0.876107 6.456720 -0.000001 -0.000000 -0.504695 0.495433 -0.359591 12.994200 -0.242716 4.980390 -88.549700 -4.066830 -70.353700 5.348090 -0.000007 -0.000001 -44.700700 37.611200 -28.267500 24.328600 0.000019 0.000005 7.712180 5.531970 -54.554400 22.291600 -0.000001 0.000005 6.024820 5.559540 -9.163890 12.994500 -0.242716 -4.980390 88.936800 2.224610 -64.446500 -5.348130 -0.000001 -0.000004 -61.166100 31.774900 -1.395650 -24.328900 0.000322 -0.000009 2.256530 3.856130 -30.381200 -22.291500 -0.000108 -0.000004 1.871750 5.503020 -6.655560 -2.192480 -6.469440 -0.000000 -164.964000 -2.388960 9.523420 39.081100 -0.000007 -0.000012 0.001412 -0.001836 37.528700 40.985400 -0.000006 -0.000013 -3.327010 -0.576604 -68.904300 11.754300 -0.000000 0.000003 -0.080981 -0.394691 -32.967500 -2.192510 6.469440 -0.000001 -171.605000 20.034900 147.045000 -39.081100 -0.002282 -0.040193 0.099995 -0.098575 44.458600 -40.985400 0.000008 0.000006 7.276170 -9.833260 -58.602200 -11.754300 -0.000006 -0.000006 -0.007873 -0.086994 -20.115400
0.000000 0.000000 0.000000 0.000000 0.000000 -0.000000 138.197000 87.272800 -130.529000 85.174200 6.568420 2.646910 15.735700 0.000005 -0.000001 70.328700 80.447600 -67.334500 8.984550 -0.406207 -0.000000 10.444100 -6.318260 6.567630 16.377300 -0.000001 -0.000001 7.429580 -3.353170 -0.673373 6.456720 -0.000001 -0.000000 -0.071000 -0.450381 -0.215010 12.994200 -0.242716 4.980390 -88.484500 -4.215880 -70.206600 5.348090 -0.000007 -0.000001 -50.376100 38.172000 -23.175200 24.328600 0.000019 0.000005 7.600360 5.941630 -52.196600 22.291600 -0.000001 0.000005 5.142760 5.556170 -8.999100 12.994500 -0.242716 -4.980390 88.862500 2.410960 -64.733300 -5.348130 -0.000001 -0.000004 -61.129100 31.980200 -3.082260 -24.328900 0.000322 -0.000009 2.487230 4.400900 -29.523900 -22.291500 -0.000108 -0.000004 2.445500 5.501670 -6.601130 -2.192480 -6.469440 -0.000000 -165.353000 -1.932990 6.516820 39.081100 -0.000007 -0.000012 0.069484 -0.068366 45.463400 40.985400 -0.000006 -0.000013 -2.040460 -3.026110 -60.133500 11.754300 -0.000000 0.000003 -0.059371 -0.329737 -30.192000 -2.192510 6.469440 -0.000001 -172.563000 20.361100 150.497000 -39.081100 -0.002282 -0.040193 0.104253 -0.099930 45.302300 -40.985400 0.000008 0.000006 7.080030 -10.010500 -61.839300 -11.754300 -0.000006 -0.000006 -0.006310 -0.073629 -19.569900
